<svg id="logo" xmlns="http://www.w3.org/2000/svg" xmlns:xlink="http://www.w3.org/1999/xlink" width="155.42" height="118" viewBox="0 0 155.42 118">
  <defs>
    <clipPath id="clip-path">
      <rect id="Прямоугольник_3" data-name="Прямоугольник 3" width="155.42" height="118" fill="#fff"/>
    </clipPath>
  </defs>
  <rect id="Прямоугольник_1" data-name="Прямоугольник 1" width="1.879" height="10.702" transform="translate(21.311 41.634)" fill="#fff"/>
  <path id="Контур_1" data-name="Контур 1" d="M127.644,228.08v-6.049h1.274v7.486h-1.478l-4.948-6.041h-.03v6.041h-1.274v-7.486h1.559l4.872,6.049Z" transform="translate(-96.709 -177.182)" fill="#fff"/>
  <path id="Контур_2" data-name="Контур 2" d="M167.4,226.121v3.4h-1.315v-7.486h6.735v.9H167.4v2.291h4.769v.9Z" transform="translate(-132.536 -177.185)" fill="#fff"/>
  <path id="Контур_3" data-name="Контур 3" d="M203.214,222.032v6.589h4.935v.9h-6.255v-7.486Z" transform="translate(-161.112 -177.183)" fill="#fff"/>
  <rect id="Прямоугольник_2" data-name="Прямоугольник 2" width="1.318" height="7.486" transform="translate(47.78 44.85)" fill="#fff"/>
  <g id="Сгруппировать_2" data-name="Сгруппировать 2">
    <g id="Сгруппировать_1" data-name="Сгруппировать 1" clip-path="url(#clip-path)">
      <path id="Контур_4" data-name="Контур 4" d="M251.773,225.585v-.868h4.265v4h-.857l-.315-.968a3.5,3.5,0,0,1-1.361.849,5.433,5.433,0,0,1-1.846.314,4.989,4.989,0,0,1-2.991-.843,3.732,3.732,0,0,1-1.323-1.692,4.357,4.357,0,0,1-.206-1.469,3.521,3.521,0,0,1,1.114-2.625,4.777,4.777,0,0,1,3.492-1.255,5.6,5.6,0,0,1,2.644.6,2.625,2.625,0,0,1,1.489,1.874H254.6q-.5-1.578-2.909-1.581a3.276,3.276,0,0,0-2.256.786,2.861,2.861,0,0,0-.938,2.248c0,2.061,1.085,3.088,3.243,3.088a3.7,3.7,0,0,0,1.993-.48,2.16,2.16,0,0,0,1.076-1.985Z" transform="translate(-197.218 -176.383)" fill="#fff"/>
      <path id="Контур_5" data-name="Контур 5" d="M301.889,225.129v-3.1h1.318v7.486h-1.318v-3.49H296.8v3.49h-1.312v-7.486H296.8v3.1Z" transform="translate(-235.799 -177.183)" fill="#fff"/>
      <path id="Контур_6" data-name="Контур 6" d="M335.445,222.933v-.9h7.906v.9H340.06v6.589h-1.323v-6.589Z" transform="translate(-267.687 -177.185)" fill="#fff"/>
      <path id="Контур_7" data-name="Контур 7" d="M18.15,248.684h-3a3.429,3.429,0,0,0-2-2.915,8.536,8.536,0,0,0-3.875-.781,9.217,9.217,0,0,0-3.446.556,2.731,2.731,0,0,0-1.949,2.638q0,1.818,2.812,2.3l6.746,1.19q5.368.935,5.371,4.859,0,2.92-3.121,4.355a14.4,14.4,0,0,1-6.136,1.141q-4.636,0-7.145-1.743A5.331,5.331,0,0,1,0,255.677H3a3.6,3.6,0,0,0,2.126,3.365,9.452,9.452,0,0,0,4.39.878,12.11,12.11,0,0,0,3.972-.553c1.483-.521,2.231-1.361,2.231-2.5a2.216,2.216,0,0,0-1.044-2.042,12.961,12.961,0,0,0-4-1.177l-4.843-.859q-5.043-.895-5.043-4.278a4.751,4.751,0,0,1,1.925-3.877,9.705,9.705,0,0,1,6.212-1.749q8.846,0,9.227,5.8" transform="translate(0 -193.821)" fill="#fff"/>
      <path id="Контур_8" data-name="Контур 8" d="M103.494,281.308H96.862l-1.746,3.7h-2.3l6.228-12.73h2.535l5.992,12.73h-2.451Zm-5.946-1.529h5.146l-2.448-5.6h-.057Z" transform="translate(-74.066 -217.278)" fill="#fff"/>
      <path id="Контур_9" data-name="Контур 9" d="M172.52,272.283v11.212h8.389v1.518H170.283v-12.73Z" transform="translate(-135.887 -217.284)" fill="#fff"/>
      <path id="Контур_10" data-name="Контур 10" d="M240.921,283.492v1.518H228.706V272.28h12.057v1.535H230.94V277.7H240v1.532H230.94v4.26Z" transform="translate(-182.509 -217.281)" fill="#fff"/>
      <path id="Контур_11" data-name="Контур 11" d="M302.705,274.648h-2.09a2.423,2.423,0,0,0-1.4-2.047,5.973,5.973,0,0,0-2.714-.542,6.391,6.391,0,0,0-2.413.388,1.912,1.912,0,0,0-1.364,1.847c0,.846.656,1.385,1.971,1.611l4.718.832q3.754.655,3.755,3.408a3.251,3.251,0,0,1-2.185,3.05,10.079,10.079,0,0,1-4.289.8,8.725,8.725,0,0,1-5-1.223,3.723,3.723,0,0,1-1.681-3.221h2.09a2.515,2.515,0,0,0,1.489,2.353,6.668,6.668,0,0,0,3.069.621,8.7,8.7,0,0,0,2.793-.388c1.03-.366,1.556-.957,1.556-1.754a1.564,1.564,0,0,0-.729-1.434,9.072,9.072,0,0,0-2.8-.822l-3.387-.6c-2.353-.415-3.533-1.407-3.533-3a3.313,3.313,0,0,1,1.353-2.717,6.783,6.783,0,0,1,4.341-1.223q6.194,0,6.461,4.064" transform="translate(-231.426 -215.928)" fill="#fff"/>
      <path id="Контур_12" data-name="Контур 12" d="M372.907,253.935v-2.107h10.366v9.728h-2.085l-.756-2.353a8.512,8.512,0,0,1-3.3,2.063,12.949,12.949,0,0,1-4.5.773,11.963,11.963,0,0,1-7.25-2.053,8.955,8.955,0,0,1-3.221-4.1,10.815,10.815,0,0,1-.5-3.568,8.6,8.6,0,0,1,2.709-6.383,11.651,11.651,0,0,1,8.495-3.039,13.487,13.487,0,0,1,6.407,1.467,6.374,6.374,0,0,1,3.625,4.533H379.77q-1.208-3.831-7.066-3.826a7.95,7.95,0,0,0-5.469,1.9,6.942,6.942,0,0,0-2.288,5.469q0,7.5,7.882,7.494a9.116,9.116,0,0,0,4.842-1.161,5.3,5.3,0,0,0,2.611-4.834Z" transform="translate(-288.603 -193.829)" fill="#fff"/>
      <path id="Контур_13" data-name="Контур 13" d="M478.789,279.548v5.463h-2.25v-12.73h7.66q5.45,0,5.45,3.424a2.805,2.805,0,0,1-.77,2.053,5.046,5.046,0,0,1-1.537,1,3.665,3.665,0,0,1,1.3.632,2.47,2.47,0,0,1,.683,1.76l.125,2.3a1.943,1.943,0,0,0,.19.819,1.414,1.414,0,0,0,.651.458v.285h-2.73a8.763,8.763,0,0,1-.412-3.191,2.212,2.212,0,0,0-.461-1.524,3.3,3.3,0,0,0-2.484-.748Zm0-5.792v4.322h5.182c2.242,0,3.37-.729,3.37-2.2q0-2.123-2.98-2.126Z" transform="translate(-380.281 -217.282)" fill="#fff"/>
      <path id="Контур_14" data-name="Контур 14" d="M562.332,277.284a6.21,6.21,0,0,1-1.719,4.379c-1.442,1.548-3.554,2.324-6.353,2.324s-4.9-.775-6.345-2.324a6.418,6.418,0,0,1,0-8.76c1.445-1.548,3.555-2.326,6.345-2.326s4.91.778,6.353,2.326a6.217,6.217,0,0,1,1.719,4.382m-2.3,0a4.843,4.843,0,0,0-1.567-3.734,6.866,6.866,0,0,0-8.413,0,5.263,5.263,0,0,0-.024,7.437,6.822,6.822,0,0,0,8.46,0,4.812,4.812,0,0,0,1.545-3.7" transform="translate(-435.861 -215.921)" fill="#fff"/>
      <path id="Контур_15" data-name="Контур 15" d="M644.293,272.283h2.229v8.267a4.161,4.161,0,0,1-1.624,3.384,7.91,7.91,0,0,1-5.016,1.415,7.423,7.423,0,0,1-4.867-1.4,3.923,3.923,0,0,1-1.5-3.167v-8.495h2.231V280.3a3.147,3.147,0,0,0,1.345,2.8,5,5,0,0,0,2.844.727,5.545,5.545,0,0,0,2.961-.708,3.06,3.06,0,0,0,1.4-2.782Z" transform="translate(-505.545 -217.283)" fill="#fff"/>
      <path id="Контур_16" data-name="Контур 16" d="M710.461,279.642v5.368h-2.24v-12.73h7.446a5.844,5.844,0,0,1,3.582,1,3.1,3.1,0,0,1,1.337,2.579,3.339,3.339,0,0,1-1.114,2.549,5.4,5.4,0,0,1-3.8,1.231Zm0-5.886v4.411H714.9c2.245,0,3.376-.762,3.376-2.286q0-2.123-3.286-2.126Z" transform="translate(-565.165 -217.282)" fill="#fff"/>
      <path id="Контур_17" data-name="Контур 17" d="M110.309,383.463a70.562,70.562,0,0,1-10.244-16.878A44.305,44.305,0,0,1,88.5,363.014a77.725,77.725,0,0,0,12.364,21.358c25.224,30.579,67.855,30.647,101.479,2.747-1.182.878-2.375,1.711-3.576,2.508-30.048,21.87-66.459,20.5-88.454-6.163" transform="translate(-70.62 -289.687)" fill="#fff"/>
      <path id="Контур_18" data-name="Контур 18" d="M229.468,23.31C204.247-7.266,161.613-7.328,127.992,20.572q1.765-1.318,3.571-2.514c30.05-21.873,66.459-20.5,88.454,6.16a70.47,70.47,0,0,1,10.094,16.556,55.685,55.685,0,0,1,11.464,3.265A77.668,77.668,0,0,0,229.468,23.31" transform="translate(-102.138 0)" fill="#fff"/>
      <path id="Контур_19" data-name="Контур 19" d="M239.117,55.352a69.749,69.749,0,0,0-9.571-15.387c-21.989-26.667-58.4-28.039-88.454-6.166,25.286-16.775,55.055-14.9,73.3,7.22a60.5,60.5,0,0,1,8.685,14.295,55.707,55.707,0,0,1,16.035.038" transform="translate(-112.592 -14.819)" fill="#fff"/>
      <path id="Контур_20" data-name="Контур 20" d="M163.152,61.605c-18.242-22.12-48.021-24-73.3-7.22A97.779,97.779,0,0,0,78.033,64.55a36.856,36.856,0,0,1,7.15-4.512,46.591,46.591,0,0,1,8.755-4.409c19.75-10.309,41.666-7.551,55.556,9.289a51.319,51.319,0,0,1,8.245,14.387,55.419,55.419,0,0,1,13.777-4.138,60.027,60.027,0,0,0-8.365-13.562" transform="translate(-62.271 -34.482)" fill="#fff"/>
      <path id="Контур_21" data-name="Контур 21" d="M595.564,353.835v-5.417h5.293v.643h-4.325v1.648h4.051v.643h-4.051v1.841h4.493v.643Z" transform="translate(-475.264 -278.04)" fill="#fff"/>
      <path id="Контур_22" data-name="Контур 22" d="M636.492,356.45h.675v2.191a1.984,1.984,0,0,1-.174.908,1.286,1.286,0,0,1-.629.548,2.863,2.863,0,0,1-1.2.211,3.207,3.207,0,0,1-1.177-.184,1.228,1.228,0,0,1-.651-.534,1.91,1.91,0,0,1-.2-.949V356.45h.678v2.188a1.642,1.642,0,0,0,.122.727.809.809,0,0,0,.428.361,1.913,1.913,0,0,0,.737.127,1.744,1.744,0,0,0,1.066-.252,1.173,1.173,0,0,0,.317-.963Z" transform="translate(-505.252 -284.449)" fill="#fff"/>
      <path id="Контур_23" data-name="Контур 23" d="M662.257,360.249v-3.793h2.267a4.2,4.2,0,0,1,1.041.1,1.158,1.158,0,0,1,.569.363.89.89,0,0,1,.211.572.831.831,0,0,1-.352.681,2.126,2.126,0,0,1-1.087.355,1.815,1.815,0,0,1,.407.187,3.027,3.027,0,0,1,.564.5l.887,1.033h-.849l-.678-.789c-.2-.228-.361-.4-.488-.523a1.371,1.371,0,0,0-.344-.255,1.328,1.328,0,0,0-.309-.1,2.569,2.569,0,0,0-.377-.016h-.786v1.684Zm.675-2.12h1.456a2.969,2.969,0,0,0,.727-.073.757.757,0,0,0,.4-.228.5.5,0,0,0,.138-.339.511.511,0,0,0-.266-.442,1.5,1.5,0,0,0-.83-.176h-1.621Z" transform="translate(-528.485 -284.454)" fill="#fff"/>
      <path id="Контур_24" data-name="Контур 24" d="M690.3,358.136a1.766,1.766,0,0,1,.683-1.478,2.786,2.786,0,0,1,1.765-.531,3.119,3.119,0,0,1,1.277.249,1.956,1.956,0,0,1,.868.7,1.807,1.807,0,0,1,.3,1.019,1.773,1.773,0,0,1-.315,1.03,1.921,1.921,0,0,1-.889.689,3.235,3.235,0,0,1-1.242.236,3.12,3.12,0,0,1-1.293-.26,1.984,1.984,0,0,1-.859-.7,1.7,1.7,0,0,1-.293-.949m.7.011a1.305,1.305,0,0,0,.5,1.079,2.174,2.174,0,0,0,2.505,0,1.376,1.376,0,0,0,.493-1.131,1.543,1.543,0,0,0-.209-.811,1.426,1.426,0,0,0-.618-.534,2.127,2.127,0,0,0-.914-.19,2.082,2.082,0,0,0-1.236.366,1.387,1.387,0,0,0-.518,1.223" transform="translate(-550.866 -284.192)" fill="#fff"/>
      <path id="Контур_25" data-name="Контур 25" d="M722.386,360.248v-3.8h1.93a6.22,6.22,0,0,1,.778.035,1.811,1.811,0,0,1,.635.179,1.006,1.006,0,0,1,.409.366.918.918,0,0,1,.157.518,1.017,1.017,0,0,1-.418.816,2.465,2.465,0,0,1-1.5.336h-1.315v1.545Zm.675-1.993h1.323a1.8,1.8,0,0,0,.935-.182.6.6,0,0,0,.114-.919.823.823,0,0,0-.428-.222,3.989,3.989,0,0,0-.632-.033h-1.312Z" transform="translate(-576.468 -284.451)" fill="#fff"/>
      <path id="Контур_26" data-name="Контур 26" d="M749.61,360.241v-3.8h3.7v.447h-3.029v1.161h2.836v.447h-2.836v1.293h3.145v.447Z" transform="translate(-598.194 -284.445)" fill="#fff"/>
    </g>
  </g>
</svg>
